<svg width="32" height="32" viewBox="0 0 32 32" fill="none" xmlns="http://www.w3.org/2000/svg">
<g id="bx:store">
<path id="Vector" d="M25.5307 3.96134C25.2931 3.56737 24.958 3.24127 24.5577 3.0145C24.1574 2.78773 23.7054 2.66793 23.2453 2.66667H8.75466C7.82399 2.66667 6.94799 3.16267 6.46932 3.96134L2.85732 9.98001C2.73233 10.1872 2.6664 10.4247 2.66666 10.6667C2.67198 11.9536 3.14598 13.1946 3.99999 14.1573V25.3333C3.99999 26.804 5.19599 28 6.66666 28H25.3333C26.804 28 28 26.804 28 25.3333V14.1573C28.854 13.1946 29.328 11.9536 29.3333 10.6667C29.3336 10.4247 29.2677 10.1872 29.1427 9.98001L25.5307 3.96134ZM26.6453 11.0013C26.563 11.6451 26.2491 12.2369 25.7623 12.666C25.2754 13.0952 24.649 13.3324 24 13.3333C22.5293 13.3333 21.3333 12.1373 21.3333 10.6667C21.3333 10.576 21.3 10.496 21.2813 10.4107L21.308 10.4053L20.2933 5.33334H23.2453L26.6453 11.0013ZM14.4253 5.33334H17.5733L18.6573 10.7533C18.6107 12.1827 17.44 13.3333 16 13.3333C14.56 13.3333 13.3893 12.1827 13.3427 10.7533L14.4253 5.33334ZM8.75466 5.33334H11.7067L10.6933 10.4053L10.72 10.4107C10.7 10.496 10.6667 10.576 10.6667 10.6667C10.6667 12.1373 9.47066 13.3333 7.99999 13.3333C7.35099 13.3324 6.72453 13.0952 6.2377 12.666C5.75086 12.2369 5.43696 11.6451 5.35466 11.0013L8.75466 5.33334ZM13.3333 25.3333V21.3333H18.6667V25.3333H13.3333ZM21.3333 25.3333V21.3333C21.3333 19.8627 20.1373 18.6667 18.6667 18.6667H13.3333C11.8627 18.6667 10.6667 19.8627 10.6667 21.3333V25.3333H6.66666V15.8107C7.09466 15.9213 7.53599 16 7.99999 16C8.75708 16.0004 9.50553 15.8392 10.1953 15.5272C10.8851 15.2152 11.5004 14.7595 12 14.1907C12.9773 15.3 14.4093 16 16 16C17.5907 16 19.0227 15.3 20 14.1907C20.4996 14.7595 21.1149 15.2152 21.8047 15.5272C22.4945 15.8392 23.2429 16.0004 24 16C24.464 16 24.9053 15.9213 25.3333 15.8107V25.3333H21.3333Z" fill="#045162"/>
</g>
</svg>
