<svg width="32" height="32" viewBox="0 0 32 32" fill="none" xmlns="http://www.w3.org/2000/svg">
<g id="fluent:person-standing-16-regular">
<path id="Vector" d="M18.684 9.07C19.194 8.34 19.5 7.456 19.5 6.5C19.5 4.018 17.48 2 15 2C13.807 2.00159 12.6633 2.4762 11.8198 3.31977C10.9762 4.16334 10.5016 5.30701 10.5 6.5C10.5 7.456 10.804 8.34 11.316 9.07C10.3895 9.2308 9.54926 9.71287 8.94284 10.4316C8.33643 11.1503 8.00261 12.0596 8 13V19C8 20.102 8.896 21 10 21V27C10 28.654 11.346 30 13 30H17C18.654 30 20 28.654 20 27V21C21.104 21 22 20.102 22 19V13C22 11.028 20.564 9.396 18.684 9.07ZM15 4C16.378 4 17.5 5.122 17.5 6.5C17.5 7.878 16.378 9 15 9C13.622 9 12.5 7.878 12.5 6.5C12.5 5.122 13.622 4 15 4ZM20 19H18V27C18 27.2652 17.8946 27.5196 17.7071 27.7071C17.5196 27.8946 17.2652 28 17 28H16V22C16 21.7348 15.8946 21.4804 15.7071 21.2929C15.5196 21.1054 15.2652 21 15 21C14.7348 21 14.4804 21.1054 14.2929 21.2929C14.1054 21.4804 14 21.7348 14 22V28H13C12.7348 28 12.4804 27.8946 12.2929 27.7071C12.1054 27.5196 12 27.2652 12 27V19H10V13C10 11.898 10.896 11 12 11H18C19.104 11 20 11.898 20 13V19Z" fill="#045162" stroke="#045162" stroke-width="0.8"/>
</g>
</svg>
