<svg width="17" height="17" viewBox="0 0 17 17" fill="none" xmlns="http://www.w3.org/2000/svg">
<g id="star">
<path id="Vector" d="M9.31375 2.89654C9.11442 2.28254 8.24575 2.28254 8.04575 2.89654L7.03308 6.01254C6.98947 6.1463 6.90465 6.26284 6.79077 6.34547C6.67689 6.42809 6.53978 6.47257 6.39908 6.47254H3.12308C2.47775 6.47254 2.20842 7.2992 2.73108 7.6792L5.38175 9.60454C5.49561 9.68731 5.58035 9.804 5.62382 9.93789C5.6673 10.0718 5.66727 10.216 5.62375 10.3499L4.61175 13.4659C4.41175 14.0799 5.11508 14.5912 5.63708 14.2112L8.28775 12.2859C8.40168 12.2031 8.5389 12.1584 8.67975 12.1584C8.8206 12.1584 8.95783 12.2031 9.07175 12.2859L11.7224 14.2112C12.2444 14.5912 12.9478 14.0805 12.7478 13.4659L11.7358 10.3499C11.6922 10.216 11.6922 10.0718 11.7357 9.93789C11.7792 9.804 11.8639 9.68731 11.9778 9.60454L14.6284 7.6792C15.1504 7.2992 14.8824 6.47254 14.2364 6.47254H10.9598C10.8192 6.47243 10.6822 6.42789 10.5685 6.34527C10.4547 6.26265 10.37 6.14619 10.3264 6.01254L9.31375 2.89654Z" stroke="#3F3F46" stroke-width="1.236" stroke-linecap="round" stroke-linejoin="round"/>
</g>
</svg>
