<svg width="92" height="92" viewBox="0 0 92 92" fill="none" xmlns="http://www.w3.org/2000/svg">
<g id="check-circle">
<path id="Vector" d="M34.5 46L42.1667 53.6667L57.5 38.3333M80.5 46C80.5 50.5306 79.6076 55.0168 77.8738 59.2026C76.1401 63.3883 73.5988 67.1916 70.3952 70.3952C67.1916 73.5988 63.3883 76.1401 59.2026 77.8738C55.0168 79.6076 50.5306 80.5 46 80.5C41.4694 80.5 36.9832 79.6076 32.7974 77.8738C28.6117 76.1401 24.8084 73.5988 21.6048 70.3952C18.4012 67.1916 15.8599 63.3883 14.1262 59.2026C12.3924 55.0168 11.5 50.5306 11.5 46C11.5 36.85 15.1348 28.0748 21.6048 21.6048C28.0748 15.1348 36.85 11.5 46 11.5C55.15 11.5 63.9252 15.1348 70.3952 21.6048C76.8652 28.0748 80.5 36.85 80.5 46Z" stroke="#005B04" stroke-width="5" stroke-linecap="round" stroke-linejoin="round"/>
</g>
</svg>
